<?xml version="1.0" encoding="UTF-8"?>
<svg version="1.1" xmlns="http://www.w3.org/2000/svg" width="1536" height="1536">
<path d="M0 0 C506.88 0 1013.76 0 1536 0 C1536 506.88 1536 1013.76 1536 1536 C1029.12 1536 522.24 1536 0 1536 C0 1029.12 0 522.24 0 0 Z " fill="#FEFEFE" transform="translate(0,0)"/>
<path d="M0 0 C40.26 0 80.52 0 122 0 C135 20.22222222 135 20.22222222 135 24 C135.66 24 136.32 24 137 24 C138.43991093 25.9948766 139.73055989 27.96286446 141 30.0625 C141.35578125 30.62388672 141.7115625 31.18527344 142.078125 31.76367188 C144.54359898 35.78846615 145.89132605 39.46714038 147 44 C147.66 44 148.32 44 149 44 C150.40839105 46.07223097 151.67991315 48.13053432 152.9296875 50.296875 C153.31595306 50.95278122 153.70221863 51.60868744 154.10018921 52.2844696 C155.36520434 54.43576674 156.6199716 56.5928643 157.875 58.75 C158.74626499 60.23492919 159.61833842 61.71938432 160.49121094 63.20336914 C162.21865846 66.1412507 163.94306045 69.08088256 165.66503906 72.02197266 C168.49329306 76.84730229 171.36328313 81.64695122 174.25 86.4375 C175.18234592 87.98824863 176.11463709 89.53903018 177.046875 91.08984375 C177.51673828 91.87085449 177.98660156 92.65186523 178.47070312 93.45654297 C180.83562392 97.3897717 183.19622548 101.32558942 185.55712891 105.26123047 C187.48822562 108.48037208 189.41989022 111.69917249 191.3515625 114.91796875 C193.57752379 118.62771111 195.80181866 122.33843688 198.0234375 126.05078125 C203.06435279 134.4703376 208.13333181 142.87207359 213.23510742 151.25488281 C216.83162217 157.16494564 220.41786849 163.08121072 224 169 C224.6693457 170.10520996 225.33869141 171.21041992 226.02832031 172.34912109 C227.8807905 175.41567888 229.72344535 178.4878828 231.5625 181.5625 C232.11671631 182.47821777 232.67093262 183.39393555 233.24194336 184.33740234 C233.74089111 185.17609863 234.23983887 186.01479492 234.75390625 186.87890625 C235.40854858 187.97054077 235.40854858 187.97054077 236.07641602 189.08422852 C237 191 237 191 237 194 C237.66 194 238.32 194 239 194 C240.46459961 195.984375 240.46459961 195.984375 242.15234375 198.75 C242.76400391 199.75160156 243.37566406 200.75320313 244.00585938 201.78515625 C244.64330078 202.84605469 245.28074219 203.90695312 245.9375 205 C246.57107422 206.02996094 247.20464844 207.05992187 247.85742188 208.12109375 C253.03337919 216.66604957 253.03337919 216.66604957 254.69140625 221.5 C256.06094057 225.16299328 257.28218057 226.32641385 260 229 C261.02029231 230.48493247 261.98988139 232.00577981 262.91015625 233.5546875 C263.42513672 234.41707031 263.94011719 235.27945313 264.47070312 236.16796875 C264.99599609 237.06128906 265.52128906 237.95460938 266.0625 238.875 C266.85624023 240.20337891 266.85624023 240.20337891 267.66601562 241.55859375 C275 253.90766154 275 253.90766154 275 257 C275.66 257 276.32 257 277 257 C277.66 259.31 278.32 261.62 279 264 C279.66 264 280.32 264 281 264 C281.0825 264.5775 281.165 265.155 281.25 265.75 C281.836203 268.10862327 281.836203 268.10862327 283.75 269.625 C286.60079251 272.63416987 288.05548947 275.87340384 289.828125 279.59375 C291.01764875 282.13757965 291.01764875 282.13757965 292.8125 284.9375 C294 287 294 287 294 290 C294.66 290 295.32 290 296 290 C297.12915039 291.49707031 297.12915039 291.49707031 298.34765625 293.578125 C298.78787109 294.32707031 299.22808594 295.07601563 299.68164062 295.84765625 C300.13732422 296.64042969 300.59300781 297.43320312 301.0625 298.25 C301.52205078 299.02730469 301.98160156 299.80460937 302.45507812 300.60546875 C304.46696606 304.0620163 306.1814226 307.05358363 307 311 C307.99 311 308.98 311 310 311 C310.4021875 309.68128906 310.4021875 309.68128906 310.8125 308.3359375 C311.94788398 305.14640488 313.27057112 302.52678211 315 299.625 C315.61617187 298.58988281 316.23234375 297.55476563 316.8671875 296.48828125 C319.64516638 291.91690687 322.48877008 287.38529032 325.359375 282.87158203 C327.94445566 278.78444443 330.3413512 274.62742109 332.66992188 270.3894043 C335.0898076 266.04222705 337.63857354 261.77236623 340.1875 257.5 C340.72052734 256.59507812 341.25355469 255.69015625 341.80273438 254.7578125 C342.57133789 253.47003906 342.57133789 253.47003906 343.35546875 252.15625 C343.81590576 251.38087891 344.27634277 250.60550781 344.75073242 249.80664062 C346 248 346 248 348 247 C348.37125 245.9275 348.7425 244.855 349.125 243.75 C350.49782054 239.88478539 352.36061709 236.63216724 354.546875 233.1640625 C355.27142425 232.00457993 355.99484944 230.84439437 356.71728516 229.68359375 C357.09314758 229.07999023 357.46901001 228.47638672 357.85626221 227.85449219 C359.75739207 224.77194083 361.60225989 221.65657783 363.4453125 218.5390625 C363.82278122 217.90109741 364.20024994 217.26313232 364.5891571 216.60583496 C365.36839149 215.28824447 366.14735425 213.9704933 366.92605591 212.65258789 C370.2153017 207.08999745 373.51960152 201.53630684 376.82208252 195.98156738 C377.58944721 194.6906579 378.3565115 193.39956977 379.12322998 192.10827637 C381.42523201 188.23213503 383.74014497 184.36399821 386.0625 180.5 C386.6395166 179.52756348 387.2165332 178.55512695 387.81103516 177.55322266 C388.6026001 176.24297119 388.6026001 176.24297119 389.41015625 174.90625 C389.86527588 174.14634766 390.32039551 173.38644531 390.78930664 172.60351562 C391.18883545 172.07435547 391.58836426 171.54519531 392 171 C392.66 171 393.32 171 394 171 C394.11666016 170.26402588 394.23332031 169.52805176 394.35351562 168.76977539 C395.00479075 165.97947467 395.87516511 164.12657045 397.34375 161.68359375 C397.8392334 160.85174561 398.3347168 160.01989746 398.84521484 159.1628418 C399.39129395 158.263479 399.93737305 157.36411621 400.5 156.4375 C401.07314941 155.48077393 401.64629883 154.52404785 402.23681641 153.53833008 C404.14894251 150.35340525 406.07311637 147.17601629 408 144 C408.67256836 142.88947266 409.34513672 141.77894531 410.03808594 140.63476562 C413.2392078 135.35014397 416.44635501 130.06920848 419.6579895 124.79096985 C428.04094658 111.01237585 436.34003669 97.18356792 444.5625 83.30859375 C445.15063728 82.31614655 445.15063728 82.31614655 445.75065613 81.3036499 C446.55360984 79.94862912 447.35656292 78.59360795 448.15951538 77.23858643 C448.56062531 76.56172791 448.96173523 75.88486938 449.375 75.1875 C449.77667389 74.50967468 450.17834778 73.83184937 450.5921936 73.13348389 C456.86824381 62.54698471 463.21648365 52.00700357 469.62060547 41.49755859 C473.44502941 35.21850556 477.25018295 28.92871144 481.02734375 22.62109375 C481.44440079 21.92473816 481.86145782 21.22838257 482.29115295 20.51092529 C484.32215074 17.11852534 486.35087834 13.72478641 488.37719727 10.32958984 C489.10560312 9.11163666 489.83403591 7.8936996 490.5625 6.67578125 C491.20316406 5.60239502 491.84382813 4.52900879 492.50390625 3.4230957 C494 1 494 1 495 0 C497.18035805 -0.1007865 499.36405444 -0.12924967 501.54673958 -0.13142776 C502.24238618 -0.1334804 502.93803278 -0.13553303 503.65475959 -0.13764787 C506.01530988 -0.14335912 508.37580259 -0.14185556 510.73635864 -0.14044189 C512.43419935 -0.14302322 514.13203944 -0.14603573 515.82987869 -0.1494453 C520.51891472 -0.1575468 525.20793546 -0.15930662 529.89697766 -0.16004276 C534.94569644 -0.16188803 539.99440718 -0.169433 545.04312134 -0.17617798 C556.09743467 -0.18978737 567.15174438 -0.19579096 578.2060647 -0.20018864 C585.10876067 -0.20294845 592.01145522 -0.20718549 598.91415024 -0.21169281 C618.02331263 -0.22389225 637.13247389 -0.23418803 656.24164009 -0.2375679 C657.4659226 -0.23778747 658.6902051 -0.23800703 659.95158707 -0.23823325 C661.17883555 -0.23845153 662.40608403 -0.23866981 663.67052186 -0.2388947 C666.15746379 -0.23933817 668.64440572 -0.23978473 671.13134766 -0.24023438 C672.36496201 -0.2404558 673.59857637 -0.24067723 674.86957298 -0.24090537 C694.83449306 -0.24484877 714.79937653 -0.26228576 734.76428248 -0.2855939 C755.25942294 -0.30932776 775.75454505 -0.3217708 796.24969947 -0.32293582 C807.75765401 -0.3238518 819.26556094 -0.32958403 830.77350235 -0.34775543 C840.57944775 -0.36318433 850.38533087 -0.36826069 860.1912861 -0.36001733 C865.19155621 -0.35611979 870.19170101 -0.35699629 875.19195557 -0.37107468 C879.77812153 -0.38386843 884.36406874 -0.38256829 888.95023464 -0.37048396 C890.60120305 -0.36853632 892.25218724 -0.37156181 893.90313353 -0.38032833 C904.25904249 -0.43179447 913.94760956 0.30430171 924 3 C924.33 3.33 924.66 3.66 925 4 C926.03125 4.144375 927.0625 4.28875 928.125 4.4375 C934.7486073 5.39899138 941.06623072 7.61976978 947.4375 9.625 C948.53481445 9.96917969 948.53481445 9.96917969 949.65429688 10.3203125 C951.43644602 10.87941811 953.2182586 11.43959634 955 12 C955 12.66 955 13.32 955 14 C957.475 14.495 957.475 14.495 960 15 C960 15.66 960 16.32 960 17 C961.16144531 17.21914063 962.32289063 17.43828125 963.51953125 17.6640625 C968.40329862 18.89439827 971.7750226 21.28879952 975.6875 24.375 C976.37448975 24.90448242 977.06147949 25.43396484 977.76928711 25.97949219 C987.29980815 33.43481025 996.41229807 41.54053076 1004 51 C1004.49628906 51.58523438 1004.99257812 52.17046875 1005.50390625 52.7734375 C1010.45261309 58.89794675 1013.62446339 65.93573267 1017 73 C1017.39703125 73.71671875 1017.7940625 74.4334375 1018.203125 75.171875 C1019 77 1019 77 1019 81 C1019.66 81 1020.32 81 1021 81 C1021.79845097 83.45630338 1022.58878871 85.91477702 1023.375 88.375 C1023.59671875 89.05433594 1023.8184375 89.73367188 1024.046875 90.43359375 C1024.73922121 92.612448 1025.38164473 94.79901787 1026 97 C1026.29777344 98.04728271 1026.29777344 98.04728271 1026.6015625 99.11572266 C1028.5143269 107.01783059 1028.30205935 115.04395249 1028.26074219 123.12304688 C1028.24999336 125.62654675 1028.26069964 128.12933399 1028.2734375 130.6328125 C1028.27211622 132.24739739 1028.26955448 133.86198185 1028.265625 135.4765625 C1028.26967346 136.21323151 1028.27372192 136.94990051 1028.27789307 137.70889282 C1028.2145166 144.8251789 1026.38097095 151.11727038 1024.125 157.85546875 C1023.77953125 158.88994141 1023.4340625 159.92441406 1023.078125 160.99023438 C1022.72234375 162.04533203 1022.3665625 163.10042969 1022 164.1875 C1021.64421875 165.25419922 1021.2884375 166.32089844 1020.921875 167.41992188 C1019.38723634 171.99806968 1017.82810929 176.52932234 1016 181 C1015.34 181 1014.68 181 1014 181 C1013.89816406 181.71800781 1013.79632812 182.43601562 1013.69140625 183.17578125 C1011.06738454 193.89424281 1000.82882597 204.56261532 993 212 C992.47535156 212.58007812 991.95070313 213.16015625 991.41015625 213.7578125 C984.35743263 221.36222909 975.48970485 226.92886377 966.1875 231.4375 C962.92995624 232.63485384 962.92995624 232.63485384 962 235 C963.58298026 235.4803318 965.16639978 235.95921612 966.75 236.4375 C967.63171875 236.70433594 968.5134375 236.97117187 969.421875 237.24609375 C971.60565835 237.88468494 973.78835498 238.46775833 976 239 C976 239.66 976 240.32 976 241 C976.68449219 241.09152344 977.36898437 241.18304687 978.07421875 241.27734375 C981.70056363 242.17303641 984.55047308 243.75026282 987.8125 245.5625 C988.40998047 245.89185547 989.00746094 246.22121094 989.62304688 246.56054688 C991.08533998 247.36773267 992.5431399 248.18304917 994 249 C994 249.66 994 250.32 994 251 C994.56203125 251.25523437 995.1240625 251.51046875 995.703125 251.7734375 C1006.73534696 257.66479412 1015.17171111 267.55660623 1022.3125 277.5625 C1022.8286084 278.28300537 1023.3447168 279.00351074 1023.87646484 279.74584961 C1026.87086024 284.04174987 1029.03530456 288.15451945 1031 293 C1031.99594908 294.66909054 1032.99561227 296.33597384 1034 298 C1036.72463891 304.28546011 1038.36997075 310.19568407 1039 317 C1039.33 317.33 1039.66 317.66 1040 318 C1041.02344715 323.83033624 1041.16910462 329.75878601 1041.203125 335.6640625 C1041.20882507 336.45920258 1041.21452515 337.25434265 1041.22039795 338.07357788 C1041.22977403 339.74581605 1041.23635217 341.41807208 1041.24023438 343.09033203 C1041.24989723 345.59832483 1041.28097394 348.10548131 1041.3125 350.61328125 C1041.37872066 360.82480994 1040.42134376 370.06916093 1038 380 C1037.60132909 381.81187797 1037.20506175 383.62428861 1036.8125 385.4375 C1036.4103125 387.2009375 1036.4103125 387.2009375 1036 389 C1035.34 389 1034.68 389 1034 389 C1033.9175 389.825 1033.835 390.65 1033.75 391.5 C1032.96901239 395.14460884 1031.70839259 397.82801651 1029.9375 401.0703125 C1028.98367761 403.03359691 1028.45422913 404.87080096 1028 407 C1027.34 407 1026.68 407 1026 407 C1025.73960938 407.8765625 1025.47921875 408.753125 1025.2109375 409.65625 C1017.77000817 430.20281616 996.38217785 447.7330311 978 458 C977.34 458 976.68 458 976 458 C976 458.66 976 459.32 976 460 C973.02640904 461.30477127 970.04523689 462.59129045 967.0625 463.875 C966.23169922 464.23980469 965.40089844 464.60460937 964.54492188 464.98046875 C959.70312903 467.05283145 955.10082936 468.59613023 949.90795898 469.51220703 C947.69089736 469.96678196 947.69089736 469.96678196 945 472 C939.73487235 473.46807346 934.47261774 474.28803251 929 474 C929 474.66 929 475.32 929 476 C928.28972656 476.06058594 927.57945312 476.12117188 926.84765625 476.18359375 C925.92855469 476.26738281 925.00945313 476.35117187 924.0625 476.4375 C923.14597656 476.51871094 922.22945312 476.59992188 921.28515625 476.68359375 C919.03840268 476.76044976 919.03840268 476.76044976 918 478 C915.64073503 478.24289831 913.30901916 478.422578 910.94278717 478.55498409 C910.22276186 478.59712768 909.50273656 478.63927126 908.7608923 478.68269193 C901.1471188 479.09604169 893.53811393 479.1365341 885.91540527 479.12025452 C884.36304567 479.12069189 882.81068615 479.12156984 881.25832701 479.12284368 C877.0416799 479.12505604 872.8250587 479.12111262 868.60841489 479.11606562 C864.04287299 479.11171392 859.47733234 479.11321087 854.91178894 479.1139679 C847.01793578 479.11449016 839.12409094 479.11137457 831.23023987 479.10573006 C819.81730484 479.09757457 808.40437381 479.0949957 796.99143618 479.09374207 C778.47101377 479.09155789 759.95059579 479.08491505 741.43017578 479.07543945 C723.44807965 479.0662489 705.46598473 479.05918759 687.48388672 479.05493164 C686.36264605 479.05466364 685.24140538 479.05439565 684.08618772 479.05411953 C675.31627848 479.05203989 666.54636921 479.05008304 657.77645993 479.04816496 C614.85096923 479.03874529 571.92548961 479.01862367 529 479 C529 386.27 529 293.54 529 198 C554.513125 197.97421875 580.02625 197.9484375 606.3125 197.921875 C622.46354885 197.89671238 638.61458719 197.87057135 654.765625 197.83984375 C663.25065049 197.82375243 671.7356764 197.80790908 680.22070312 197.79248047 C681.81580444 197.78956456 681.81580444 197.78956456 683.44313002 197.78658974 C700.5915104 197.75560305 717.73987741 197.73860401 734.88828051 197.72680578 C752.49850906 197.71437718 770.10866767 197.68683724 787.71885204 197.64538693 C798.57770141 197.62030045 809.43643472 197.60687918 820.29531348 197.60857043 C827.75040481 197.60860027 835.20537827 197.59389869 842.66042364 197.56783572 C846.95604477 197.55324624 851.2514242 197.54493801 855.54706573 197.55419731 C859.49072225 197.56255348 863.43389557 197.55214239 867.37748086 197.52766338 C868.79362709 197.52203239 870.20981995 197.52291214 871.62595141 197.53148755 C890.65279385 197.63670512 907.83272649 192.75638352 921.7890625 179.296875 C932.45399608 168.21740337 938.48578176 154.84388142 938.2734375 139.2578125 C937.12615474 125.58875791 932.40599598 113.23995061 922.18359375 103.74609375 C913.47054737 96.77877402 904.3234446 91.92511229 893.88671875 88.09375 C891 87 891 87 890 86 C888.19442828 85.88177574 886.38423152 85.83392039 884.57491779 85.81270599 C883.39023924 85.79653087 882.20556069 85.78035575 880.98498279 85.76369047 C879.00762009 85.7445266 879.00762009 85.7445266 876.99031067 85.72497559 C875.58873911 85.70808817 874.18717206 85.69082319 872.78560942 85.67321062 C868.91560415 85.62609679 865.04555346 85.58573961 861.17545855 85.54677629 C858.70152281 85.52135502 856.22761468 85.4940666 853.75370598 85.46614456 C821.4598642 85.10213521 789.16486179 84.89098786 756.86945057 84.72618866 C752.77144468 84.70490211 748.67344123 84.68319664 744.57543945 84.66113281 C743.04761085 84.65293135 743.04761085 84.65293135 741.48891702 84.64456421 C725.00778287 84.55365158 708.52859067 84.37856013 692.0485541 84.17135018 C675.12773654 83.96037134 658.20792992 83.83701277 641.28583926 83.79529428 C630.84927769 83.76688555 620.41785674 83.67121311 609.98283627 83.48856777 C602.82108958 83.36984025 595.66207714 83.33674609 588.49943749 83.36995512 C584.3686781 83.38663253 580.24700117 83.36668589 576.1178093 83.24481583 C559.78681515 82.23715554 559.78681515 82.23715554 545.36703658 88.20601845 C540.86065075 93.60100807 538.00847217 99.53475767 535.34768331 105.99691868 C533.10125057 111.00270911 530.02420034 115.43955472 527 120 C524.96824185 123.31448454 522.98677564 126.658387 521 130 C515.12554113 139.83810475 509.19430015 149.64149634 503.25 159.4375 C502.88014984 160.04736755 502.51029968 160.65723511 502.12924194 161.2855835 C495.31921283 172.51327055 495.31921283 172.51327055 492.234375 177.41015625 C490.45107756 180.24640943 488.77367501 183.13015531 487.12597656 186.04785156 C484.62993205 190.37533896 481.98380638 194.61493856 479.375 198.875 C475.05619065 205.94066196 470.78547414 213.02747958 466.625 220.1875 C463.18506814 226.10554984 459.51837042 231.78279083 455.6640625 237.44140625 C453.88640136 240.17466458 452.49551784 242.94099505 451.1171875 245.88671875 C449.64573897 248.67012314 447.89574194 251.20984344 446.125 253.8125 C443.58907686 257.54646037 441.23642659 261.26108329 439.125 265.25 C435.51170692 272.06419944 431.35440401 278.52315477 427.23730469 285.03955078 C425.39625306 287.95660771 423.56912242 290.88169165 421.75 293.8125 C420.87601563 295.21435547 420.87601563 295.21435547 419.984375 296.64453125 C418.30317887 299.48734124 416.70917816 302.35051148 415.13671875 305.25390625 C412.22908235 310.61721249 409.18090165 315.88204313 406.0625 321.125 C405.50457764 322.06601562 404.94665527 323.00703125 404.37182617 323.9765625 C398.96371185 333.08622729 393.51431805 342.17114243 388.0546875 351.25 C385.52142741 355.463291 382.99436016 359.68016814 380.47389221 363.90112305 C378.85821164 366.60664856 377.24083091 369.31115604 375.62338257 372.015625 C374.84396928 373.31984203 374.06532058 374.62451634 373.2875061 375.9296875 C369.46260439 382.34692667 365.59036489 388.69808533 361.3972168 394.88427734 C358.83466003 398.76460531 356.52688354 402.79518802 354.1875 406.8125 C348.41868534 416.64440566 342.54156454 426.40761419 336.60717773 436.14013672 C335.88391863 437.32647716 335.16069292 438.51283796 334.4375 439.69921875 C334.07676895 440.29085815 333.7160379 440.88249756 333.34437561 441.49206543 C331.04178212 445.27373407 328.75800849 449.06616597 326.48699951 452.86688232 C324.94889561 455.44040679 323.40555007 458.01076996 321.86193848 460.58099365 C321.12878988 461.80506769 320.39817799 463.03066515 319.67028809 464.25787354 C318.6566528 465.96625489 317.6331912 467.66879421 316.609375 469.37109375 C316.03155273 470.33974365 315.45373047 471.30839355 314.85839844 472.30639648 C312.84233432 475.22852411 310.57638667 477.56659228 308 480 C305.70817736 477.88548169 304.25353893 475.88222251 302.8125 473.125 C300.85519155 469.50885829 298.79503801 465.99277268 296.625 462.5 C290.59064045 452.76532563 284.73834993 442.92079845 278.85449219 433.09472656 C277.17894087 430.2986117 275.50056142 427.50423116 273.8203125 424.7109375 C267.94923679 414.94791916 262.12293279 405.16029972 256.36279297 395.33129883 C254.19994096 391.6537692 252.04585757 388.00667809 249.625 384.4921875 C248 382 248 382 248 380 C247.34 380 246.68 380 246 380 C245.73622559 379.43909668 245.47245117 378.87819336 245.20068359 378.30029297 C241.48314187 370.61696224 237.09605264 363.38363302 232.625 356.125 C231.15701462 353.73289519 229.69132809 351.33939003 228.2265625 348.9453125 C227.86999573 348.36315979 227.51342896 347.78100708 227.14605713 347.18121338 C224.20403279 342.36501805 221.34725366 337.50180869 218.52099609 332.61669922 C217.03690386 330.06348885 215.52231472 327.53055282 214 325 C212.93566686 323.16773028 211.87328484 321.33432628 210.8125 319.5 C208.42599648 315.40391011 205.99632646 311.34251722 203.5 307.3125 C192.20092598 289.03522156 181.31061526 270.50277174 170.35432434 252.01869202 C169.24655563 250.1511189 168.13677224 248.28475407 167.02685547 246.41845703 C165.73640059 244.24199965 164.45333965 242.06112881 163.18017578 239.87451172 C162.64763184 238.96588379 162.11508789 238.05725586 161.56640625 237.12109375 C161.11338135 236.34048584 160.66035645 235.55987793 160.19360352 234.75561523 C159.10693443 232.85003976 159.10693443 232.85003976 157 232 C156.30646635 230.38533341 155.61839684 228.76813627 154.95556641 227.140625 C153.06248656 222.89981659 150.57299024 218.97759675 148.1875 215 C147.62434082 214.05390869 147.06118164 213.10781738 146.48095703 212.13305664 C140.52857268 202.15752894 134.48395307 192.2374849 128.41943359 182.32983398 C127.44975106 180.73821368 126.4864006 179.14272276 125.52856445 177.54394531 C123.92015232 174.86711182 122.28495653 172.20810813 120.64453125 169.55078125 C120.02255859 168.53822266 119.40058594 167.52566406 118.75976562 166.48242188 C117.45314987 164.35540345 116.14320888 162.2304244 114.83007812 160.10742188 C114.21197266 159.09873047 113.59386719 158.09003906 112.95703125 157.05078125 C112.38960205 156.12950439 111.82217285 155.20822754 111.23754883 154.2590332 C110 152 110 152 110 150 C109.34 150 108.68 150 108 150 C107.36191406 148.85660156 106.72382813 147.71320313 106.06640625 146.53515625 C105.23185813 145.04422197 104.39721796 143.55333921 103.5625 142.0625 C103.14162109 141.30775391 102.72074219 140.55300781 102.28710938 139.77539062 C101.88427734 139.05673828 101.48144531 138.33808594 101.06640625 137.59765625 C100.5086853 136.60004272 100.5086853 136.60004272 99.93969727 135.58227539 C99.09652286 134.01422168 99.09652286 134.01422168 98 133 C97.67 247.18 97.34 361.36 97 479 C64.99 479 32.98 479 0 479 C0 320.93 0 162.86 0 0 Z " fill="#010101" transform="translate(247,517)"/>
<path d="M0 0 C67.03070215 -0.12099405 67.03070215 -0.12099405 95.09765625 -0.14648438 C101.52099633 -0.15235722 107.94433618 -0.15841845 114.36767578 -0.16479492 C115.57512323 -0.16598179 115.57512323 -0.16598179 116.80696356 -0.16719264 C129.77090035 -0.18020983 142.73479686 -0.20384418 155.69870983 -0.23145839 C169.02164044 -0.25959882 182.34455009 -0.27619444 195.6675092 -0.28226548 C203.87614664 -0.28636409 212.08467026 -0.29926807 220.29327263 -0.3237494 C225.9364671 -0.33971347 231.57960347 -0.34437647 237.22281884 -0.34050413 C240.46961385 -0.338599 243.71617196 -0.34302458 246.96294022 -0.35761642 C267.63541288 -0.4459065 285.67938211 1.19544161 305 9 C305 9.66 305 10.32 305 11 C307.31 11.66 309.62 12.32 312 13 C312 13.66 312 14.32 312 15 C312.83917969 15.35771484 312.83917969 15.35771484 313.6953125 15.72265625 C324.60602889 21.76978211 330.90628564 33.51432012 334.45703125 45.02734375 C334.63621094 45.67832031 334.81539062 46.32929687 335 47 C335.185625 47.58652344 335.37125 48.17304687 335.5625 48.77734375 C338.26261936 62.49491442 335.64172948 75.53740578 328 87 C327.319375 88.1446875 327.319375 88.1446875 326.625 89.3125 C321.6323807 97.48224067 314.80786382 104.10986015 306 108 C305.34 108 304.68 108 304 108 C304 108.66 304 109.32 304 110 C302.44179635 110.61516257 300.87802509 111.21621584 299.3125 111.8125 C298.44238281 112.14894531 297.57226562 112.48539063 296.67578125 112.83203125 C287.02873938 115.89735061 277.91957478 117.44479814 267.80680847 117.36076355 C266.65230629 117.36332682 265.4978041 117.3658901 264.30831701 117.36853105 C260.47907957 117.37343239 256.65024541 117.35703626 252.82104492 117.34057617 C250.06053929 117.33805322 247.30004125 117.34007481 244.53953552 117.34190369 C238.61653231 117.34346963 232.69362896 117.33413195 226.77065086 117.31719017 C218.20724812 117.29271193 209.64389321 117.28498592 201.08045927 117.2812262 C187.18373917 117.27467549 173.28707217 117.25475196 159.39038086 117.22631836 C145.89852157 117.19874193 132.40667674 117.17752594 118.91479492 117.16479492 C118.08185157 117.16400675 117.24890821 117.16321858 116.39072414 117.16240653 C112.21170253 117.15849115 108.03268082 117.15470009 103.85365903 117.15097082 C69.2357255 117.11991792 34.61789031 117.06463818 0 117 C0 78.39 0 39.78 0 0 Z " fill="#FBFBFB" transform="translate(868,795)"/>
<path d="M0 0 C52.48581612 -0.06869898 104.9716277 -0.12154548 157.45747996 -0.15319599 C163.65695611 -0.15694801 169.85643218 -0.16083099 176.0559082 -0.16479492 C177.90717799 -0.16597532 177.90717799 -0.16597532 179.79584717 -0.16717956 C199.76729422 -0.18022578 219.73871531 -0.20387532 239.71014697 -0.23145839 C260.20977274 -0.25953437 280.70938493 -0.2761809 301.20902914 -0.28226548 C313.85363993 -0.28637737 326.49817732 -0.29935441 339.14276551 -0.3237494 C347.81910943 -0.33963365 356.49541551 -0.34439427 365.1717729 -0.34050413 C370.1740647 -0.33858678 375.17622842 -0.34148126 380.17849731 -0.35761642 C384.76654832 -0.37230675 389.35438616 -0.37289361 393.94244736 -0.36269668 C395.59412081 -0.361438 397.24580804 -0.36516576 398.89745475 -0.37464955 C409.32870791 -0.43101786 418.83582639 0.54572874 429 3 C429 3.33 429 3.66 429 4 C426.14559413 3.85803484 423.29153804 3.71154174 420.4375 3.5625 C419.63763672 3.52318359 418.83777344 3.48386719 418.01367188 3.44335938 C417.22412109 3.40146484 416.43457031 3.35957031 415.62109375 3.31640625 C414.9036499 3.27974854 414.18620605 3.24309082 413.44702148 3.20532227 C411.55495475 3.0465646 409.67088051 2.79090618 407.79523319 2.49583393 C404.08905979 2.01163535 400.56474129 1.86944285 396.82924747 1.8613348 C396.1390676 1.85849258 395.44888772 1.85565036 394.7377933 1.85272202 C392.43212195 1.84442019 390.12650115 1.84311038 387.82081604 1.84178162 C386.14835411 1.83721319 384.47589331 1.83221275 382.80343384 1.82681805 C378.21301595 1.81325952 373.62260545 1.8058252 369.0321728 1.79939139 C364.0799572 1.79137741 359.12775693 1.77768306 354.17555237 1.76467896 C345.59728539 1.74293038 337.01901686 1.72477997 328.44073677 1.70907402 C316.03798598 1.68636066 303.63525218 1.65821985 291.2325158 1.62875474 C271.10985202 1.58109682 250.98718129 1.53782775 230.86450195 1.49731445 C211.31729593 1.45795037 191.77009608 1.41652195 172.22290039 1.37231445 C171.01799324 1.36959018 169.81308609 1.36686591 168.57166661 1.36405908 C162.52699618 1.35037945 156.48232585 1.33665921 150.43765557 1.32291877 C100.29178326 1.20898227 50.14589757 1.10216666 0 1 C0 0.67 0 0.34 0 0 Z " fill="#454545" transform="translate(742,517)"/>
<path d="M0 0 C18.77694942 -0.07030072 37.55387188 -0.12309085 56.33092594 -0.15543652 C65.05082174 -0.17085907 73.77063544 -0.19185961 82.49047852 -0.22631836 C90.09693999 -0.25636278 97.70334195 -0.27560845 105.30986112 -0.28226548 C109.33179724 -0.28615245 113.35356321 -0.29518931 117.37544441 -0.31719017 C121.17328331 -0.337794 124.97088455 -0.34378646 128.76877403 -0.33932304 C130.8019962 -0.34052149 132.83519343 -0.35653694 134.86834717 -0.3732605 C143.95235259 -0.34326868 152.18626623 0.93525262 161 3 C161 3.33 161 3.66 161 4 C158.14559413 3.85803484 155.29153804 3.71154174 152.4375 3.5625 C151.63763672 3.52318359 150.83777344 3.48386719 150.01367188 3.44335938 C149.22412109 3.40146484 148.43457031 3.35957031 147.62109375 3.31640625 C146.9036499 3.27974854 146.18620605 3.24309082 145.44702148 3.20532227 C143 3 143 3 140.17700195 2.5 C134.39449051 1.66960109 128.55048423 1.82159372 122.72094727 1.79467773 C121.38002734 1.78508591 120.03911035 1.77507509 118.69819641 1.76467896 C115.07477846 1.73776504 111.45134766 1.71668279 107.82788587 1.69667697 C104.03488686 1.67473353 100.24192684 1.64738593 96.44895935 1.62062073 C89.27393888 1.57080642 82.09889664 1.52582605 74.92383379 1.48259836 C66.75209625 1.43312944 58.58039784 1.37824727 50.4086982 1.32291877 C33.60583492 1.20927172 16.80293569 1.1023954 0 1 C0 0.67 0 0.34 0 0 Z " fill="#474747" transform="translate(1010,517)"/>
<path d="M0 0 C29.13902594 -0.61916858 29.13902594 -0.61916858 42 3 C42 3.33 42 3.66 42 4 C39.14559413 3.85803484 36.29153804 3.71154174 33.4375 3.5625 C32.23770508 3.50352539 32.23770508 3.50352539 31.01367188 3.44335938 C26.28619625 3.19251373 21.68876841 2.67585851 17 2 C14.02352915 1.75726596 11.04463694 1.59337862 8.0625 1.4375 C7.28326172 1.39431641 6.50402344 1.35113281 5.70117188 1.30664062 C3.80092883 1.20171923 1.90048331 1.1004755 0 1 C0 0.67 0 0.34 0 0 Z " fill="#5B5B5B" transform="translate(1129,517)"/>
<path d="M0 0 C0.33 0 0.66 0 1 0 C1.21755666 5.4389165 1.10428384 9.87080814 -1 15 C-1.33 15 -1.66 15 -2 15 C-2.22577402 9.5814234 -1.46670113 5.22512279 0 0 Z " fill="#959595" transform="translate(1287,882)"/>
<path d="M0 0 C0.33 0.66 0.66 1.32 1 2 C1.66 2.33 2.32 2.66 3 3 C-1.39453125 7.00390625 -1.39453125 7.00390625 -3 8 C-3.99 7.67 -4.98 7.34 -6 7 C-4.02 4.69 -2.04 2.38 0 0 Z " fill="#3B3B3B" transform="translate(1176,688)"/>
</svg>
